Genre:Comedy | Family | Fantasy
Language:English
IMDb:http://www.imdb.com/title/tt1415283/
Encoder: Tony2
.............................................
General
Complete name : Nanny.McPhee.And.The.Big.Bang.DVDRip.MP4.FEEL-FREE
Format : MPEG-4
Format profile : Base Media
Codec ID : isom
File size : 997 MiB
Duration : 1h 44mn
Overall bit rate : 1 330 Kbps
..............................................
Video
ID : 1
Format : MPEG-4 Visual
Format profile : Simple@L1
Format settings, BVOP : No
Format settings, QPel : No
Format settings, GMC : No warppoints
Format settings, Matrix : Default (H.263)
Codec ID : 20
Duration : 1h 44mn
Bit rate mode : Variable
Bit rate : 1 197 Kbps
Width : 720 pixels
Height : 304 pixels
Display aspect ratio : 2.35:1
Frame rate mode : Constant
Frame rate : 25.000 fps
Resolution : 24 bits
Colorimetry : 4:2:0
Scan type : Progressive
Bits/(Pixel*Frame) : 0.219
Stream size : 897 MiB (90%)
.................................................
Audio
ID : 2
Format : AAC
Format/Info : Advanced Audio Codec
Format version : Version 4
Format profile : LC
Format settings, SBR : No
Codec ID : 40
Duration : 1h 44mn
Bit rate mode : Variable
Bit rate : 128 Kbps
Channel(s) : 2 channels
Channel positions : L R
Sampling rate : 48.0 KHz
Resolution : 16 bits
Stream size : 95.9 MiB (10%)
.................................................
Plot:
Nanny McPhee arrives to help a harried young mother who is trying to run the family farm while her husband is away at war, though she uses her magic to teach the woman's children and their two spoiled cousins five new lessons
 
http://www.imdb.com/title/tt1415283/